<svg version="1.1" viewBox="0.0 0.0 128.0 128.0" fill="none" stroke="none" stroke-linecap="square" stroke-miterlimit="10" xmlns:xlink="http://www.w3.org/1999/xlink" xmlns="http://www.w3.org/2000/svg"><clipPath id="p.0"><path d="m0 0l128.0 0l0 128.0l-128.0 0l0 -128.0z" clip-rule="nonzero"/></clipPath><g clip-path="url(#p.0)"><path fill="#000000" fill-opacity="0.0" d="m0 0l128.0 0l0 128.0l-128.0 0z" fill-rule="evenodd"/><path fill="#000000" fill-opacity="0.0" d="m5.6535435 64.0l0 0c0 -32.4065 26.122599 -58.677166 58.34646 -58.677166l0 0c15.474442 0 30.315094 6.1820407 41.25717 17.186144c10.942085 11.004103 17.089287 25.92887 17.089287 41.49102l0 0c0 32.4065 -26.122597 58.677162 -58.34646 58.677162l0 0c-32.223858 0 -58.34646 -26.27066 -58.34646 -58.677162z" fill-rule="evenodd"/><path stroke="#000000" stroke-width="8.0" stroke-linejoin="round" stroke-linecap="butt" d="m5.6535435 64.0l0 0c0 -32.4065 26.122599 -58.677166 58.34646 -58.677166l0 0c15.474442 0 30.315094 6.1820407 41.25717 17.186144c10.942085 11.004103 17.089287 25.92887 17.089287 41.49102l0 0c0 32.4065 -26.122597 58.677162 -58.34646 58.677162l0 0c-32.223858 0 -58.34646 -26.27066 -58.34646 -58.677162z" fill-rule="evenodd"/><path fill="#000000" fill-opacity="0.0" d="m-1.4948633 20.725584l128.0 0l0 74.519684l-128.0 0z" fill-rule="evenodd"/><path fill="#000000" d="m30.637903 84.12855q-2.828125 0 -4.921875 -0.90625q-2.078125 -0.921875 -3.453125 -2.96875q-1.375 -2.0625 -1.984375 -5.453125q-0.59375 -3.390625 -0.375 -8.40625l0.921875 -23.593746l8.265625 -1.0625l0.625 -0.078125l0.078125 0.640625q-0.28125 0.5 -0.5625 1.0q-0.28125 0.484375 -0.359375 1.6875l-0.78125 9.75l0.359375 0.5l-0.5625 11.015621q-0.21875 4.59375 0.3125 7.109375q0.53125 2.5 1.625 3.421875q1.09375 0.921875 2.656252 0.921875q2.25 0 4.046875 -0.921875q1.8125 -0.921875 3.359375 -2.125l1.703125 5.796875q-2.40625 1.765625 -5.125 2.71875q-2.71875 0.953125 -5.828127 0.953125l0 0zm-16.953125 -33.562496l25.296877 0l-0.078125 6.296875l-25.359377 0l0.140625 -6.296875zm50.87503 33.70312q-1.7656212 0 -3.3906212 -0.5q-1.625 -0.484375 -3.015625 -1.5q-1.375 -1.03125 -2.5 -2.453125l-1.34375 3.609375l-6.078125 0l0 -47.406246l7.984375 0l0.703125 0l0 0.625q-0.421875 0.4375 -0.53125 0.9375q-0.09375 0.484375 -0.09375 1.6875l0 14.96875q0.765625 -0.984375 1.6875 -1.828125q0.921875 -0.84375 2.046875 -1.4375q1.140625 -0.609375 2.375 -0.890625q1.234375 -0.28125 2.4999962 -0.28125q3.046875 0 5.484375 1.0625q2.4375 1.046875 4.15625 3.140625q1.734375 2.078125 2.6875 5.1875q0.953125 3.109375 0.953125 7.281246q0 4.515625 -1.09375 7.875q-1.09375 3.359375 -3.0 5.546875q-1.90625 2.1875 -4.34375 3.28125q-2.4375 1.09375 -5.1875 1.09375l0 0zm-1.6249962 -6.21875q1.4843712 0 2.8124962 -0.59375q1.34375 -0.609375 2.328125 -1.875q1.0 -1.265625 1.5625 -3.34375q0.5625 -2.09375 0.5625 -5.0625q0 -2.6875 -0.5 -4.796871q-0.484375 -2.125 -1.40625 -3.578125q-0.90625 -1.453125 -2.21875 -2.21875q-1.3125 -0.78125 -2.9999962 -0.78125q-2.046875 0 -3.578125 1.3125q-1.515625 1.296875 -2.296875 3.78125q-0.765625 2.46875 -0.84375 5.921871q0 2.6875 0.390625 4.78125q0.390625 2.078125 1.203125 3.53125q0.8125 1.4375 2.046875 2.1875q1.234375 0.734375 2.9375 0.734375l0 0zm20.625027 17.171883l-0.0625 -44.718754l7.90625 0l0 4.59375q1.125 -1.84375 2.5 -3.0q1.390625 -1.171875 3.109375 -1.734375q1.734375 -0.5625 3.640625 -0.5625q2.6875 0 5.046875 1.09375q2.375 1.09375 4.140625 3.28125q1.765625 2.1875 2.78125 5.40625q1.03125 3.21875 1.03125 7.515621q0 4.3125 -1.0625 7.5625q-1.046875 3.25 -2.921875 5.375q-1.875 2.125 -4.25 3.1875q-2.359375 1.046875 -4.90625 1.046875q-1.765625 0 -3.421875 -0.421875q-1.65625 -0.421875 -3.078125 -1.234375q-1.40625 -0.8125 -2.328125 -2.015625l0 14.625008l-8.125 0zm14.765625 -17.171883q1.5625 0 2.890625 -0.5625q1.34375 -0.5625 2.375 -1.859375q1.03125 -1.3125 1.59375 -3.5q0.5625 -2.203125 0.5625 -5.453125q0 -3.2499962 -0.859375 -5.609371q-0.84375 -2.375 -2.40625 -3.640625q-1.546875 -1.265625 -3.734375 -1.34375q-1.6875 -0.078125 -3.0 0.5625q-1.3125 0.640625 -2.234375 2.0625q-0.90625 1.40625 -1.40625 3.59375q-0.484375 2.1874962 -0.484375 5.296871q0.0625 2.125 0.34375 3.828125q0.28125 1.6875 0.8125 2.921875q0.53125 1.234375 1.3125 2.046875q0.78125 0.8125 1.828125 1.234375q1.0625 0.421875 2.40625 0.421875z" fill-rule="nonzero"/></g></svg>